<?xml version="1.0" standalone="no"?>
<!DOCTYPE svg PUBLIC "-//W3C//DTD SVG 20010904//EN"
 "http://www.w3.org/TR/2001/REC-SVG-20010904/DTD/svg10.dtd">
<svg version="1.0" xmlns="http://www.w3.org/2000/svg"
 width="227.000000pt" height="222.000000pt" viewBox="0 0 227.000000 222.000000"
 preserveAspectRatio="xMidYMid meet">

<g transform="translate(0.000000,222.000000) scale(0.100000,-0.100000)"
fill="#000000" stroke="none">
<path d="M1155 326 c-17 -7 -45 -29 -62 -49 -107 -122 16 -310 175 -268 38 11
102 68 102 91 0 18 -61 10 -87 -10 -28 -22 -82 -26 -114 -10 -25 14 -49 62
-49 97 0 61 72 113 127 92 15 -6 35 -17 45 -25 10 -10 30 -14 54 -12 l39 3
-39 42 c-53 59 -125 78 -191 49z"/>
<path d="M66 174 c35 -86 64 -158 64 -160 0 -2 10 -4 23 -4 21 0 30 16 80 142
31 79 59 151 63 161 5 14 0 17 -28 17 -35 0 -35 0 -75 -101 l-39 -101 -40 101
-39 101 -37 0 -37 0 65 -156z"/>
<path d="M320 170 l0 -160 95 0 95 0 0 30 0 30 -60 0 -60 0 0 35 0 35 60 0 60
0 0 30 0 30 -60 0 -60 0 0 35 0 35 60 0 60 0 0 30 0 30 -95 0 -95 0 0 -160z"/>
<path d="M550 170 l0 -160 35 0 34 0 3 57 3 57 38 -57 37 -57 74 0 73 0 9 33
c9 31 11 32 64 32 52 0 56 -2 69 -32 12 -28 20 -33 48 -33 18 0 33 3 33 8 -1
4 -27 75 -58 157 -56 145 -59 150 -88 153 l-30 3 -59 -156 -58 -156 -33 47
c-40 55 -41 61 -14 69 24 8 50 54 50 90 0 38 -27 84 -56 95 -14 6 -59 10 -100
10 l-74 0 0 -160z m141 90 c21 -12 25 -50 7 -68 -7 -7 -27 -12 -45 -12 -32 0
-33 1 -33 45 0 42 2 45 26 45 14 0 34 -5 45 -10z m259 -107 c0 -8 -12 -13 -30
-13 l-30 0 15 36 c8 20 15 39 16 43 1 10 28 -53 29 -66z"/>
<path d="M1860 300 c0 -24 4 -30 20 -30 61 0 108 -61 96 -122 -9 -44 -33 -67
-78 -74 -34 -6 -38 -10 -38 -35 0 -27 3 -29 36 -29 51 0 110 36 130 79 52 108
-19 241 -127 241 -37 0 -39 -2 -39 -30z"/>
<path d="M2080 170 l0 -160 90 0 90 0 0 30 0 30 -60 0 -60 0 0 35 0 35 60 0
60 0 0 30 0 30 -60 0 -60 0 0 35 0 35 60 0 60 0 0 30 0 30 -90 0 -90 0 0 -160z"/>
</g>
</svg>
